<?xml version="1.0" encoding="utf-8"?>
<!-- Generator: Adobe Illustrator 27.1.1, SVG Export Plug-In . SVG Version: 6.00 Build 0)  -->
<svg version="1.1" id="Layer_1" xmlns="http://www.w3.org/2000/svg" xmlns:xlink="http://www.w3.org/1999/xlink" x="0px" y="0px"
	 viewBox="0 0 431.2 319.2" style="enable-background:new 0 0 431.2 319.2;" xml:space="preserve">
<style type="text/css">
	.st0{fill:#F9F9F9;}
</style>
<path class="st0" d="M425.6,126h-36.5c-1.7-31.2-17.5-54.1-25.2-63.6c3.2-3,6.9-7.8,8.7-14.6c3.4-12.8-0.7-28-12.2-45.3
	c-1-1.6-2.8-2.5-4.7-2.5c-0.3,0-29.5,0.5-33.2,39.2c-12.2-4.8-37.7-13.2-69.1-13.2c-48.7,0-90.5,19.5-124.3,58
	C115.8,84.9,58.9,93,56.1,168H33.6c-17.5,0-21.3-13.3-22.2-19.5c-0.2-1.4-0.2-2.5-0.2-2.9c0-3.1-2.5-5.6-5.6-5.6S0,142.5,0,145.6
	c0,11.6,7,33.6,33.6,33.6h22.5c2.5,70.2,52.6,81.8,69.9,83.6v50.8c0,3.1,2.5,5.6,5.6,5.6h28c3.1,0,5.6-2.5,5.6-5.6v-50.4H280v50.4
	c0,3.1,2.5,5.6,5.6,5.6h28c3.1,0,5.6-2.5,5.6-5.6V263c58.7-3.7,68.2-64.8,69.7-83.8h36.7c3.1,0,5.6-2.5,5.6-5.6v-42
	C431.2,128.5,428.7,126,425.6,126L425.6,126L425.6,126z M420,168h-36.4c-3.1,0-5.6,2.5-5.6,5.6c0,3.2-0.9,78.4-64.4,78.4
	c-3.1,0-5.6,2.5-5.6,5.6V308h-16.8v-50.4c0-3.1-2.5-5.6-5.6-5.6h-126c-3.1,0-5.6,2.5-5.6,5.6V308h-16.8v-50.4c0-3.1-2.6-5.6-5.7-5.6
	c-2.6,0-64.3-0.9-64.3-78.4s61.7-78.4,64.3-78.4c1.5,0.2,3.2-0.7,4.3-2c31.8-37.1,71.3-56,117.4-56c40.5,0,71.5,15.2,71.8,15.3
	c1.7,0.9,3.8,0.8,5.5-0.2c1.6-1,2.6-2.8,2.6-4.8c0-28.2,13.6-34.6,19.6-36c8.1,13,11.1,24.4,8.9,33.1c-2.1,8.4-8.4,11.8-8.6,11.9
	c-1.6,0.8-2.7,2.3-3,4.1c-0.3,1.8,0.3,3.6,1.5,4.9c0.3,0.3,26.4,27,26.4,66.1c0,3.1,2.5,5.6,5.6,5.6H420L420,168L420,168z"/>
<path class="st0" d="M313.6,70c-18.5,0-33.6,15.1-33.6,33.6s15.1,33.6,33.6,33.6s33.6-15.1,33.6-33.6S332.1,70,313.6,70z M313.6,126
	c-12.4,0-22.4-10.1-22.4-22.4s10-22.4,22.4-22.4S336,91.2,336,103.6S326,126,313.6,126z"/>
<path class="st0" d="M313.8,98L313.8,98c-3.1,0-5.6,2.5-5.6,5.6s2.5,5.6,5.6,5.6s5.6-2.5,5.6-5.6S316.9,98,313.8,98L313.8,98
	L313.8,98z"/>
<path class="st0" d="M201.6,84c-41.7,0-75.6,33.9-75.6,75.6s33.9,75.6,75.6,75.6s75.6-33.9,75.6-75.6S243.3,84,201.6,84z M201.6,224
	c-35.5,0-64.4-28.9-64.4-64.4s28.9-64.4,64.4-64.4s64.4,28.9,64.4,64.4S237.1,224,201.6,224z"/>
<path class="st0" d="M229.6,137.2c3.1,0,5.6-2.5,5.6-5.6s-2.5-5.6-5.6-5.6h-22.4v-8.4c0-3.1-2.5-5.6-5.6-5.6s-5.6,2.5-5.6,5.6v8.4
	h-8.4c-7.9,0-19.6,5.2-19.6,19.6s11.7,19.6,19.6,19.6h8.4V182h-22.4c-3.1,0-5.6,2.5-5.6,5.6s2.5,5.6,5.6,5.6H196v8.4
	c0,3.1,2.5,5.6,5.6,5.6s5.6-2.5,5.6-5.6v-8.4h8.4c7.9,0,19.6-5.2,19.6-19.6S223.5,154,215.6,154h-8.4v-16.8H229.6z M196,154h-8.4
	c-1.4,0-8.4-0.4-8.4-8.4c0-7.4,5.9-8.4,8.4-8.4h8.4V154L196,154z M215.6,165.2c1.4,0,8.4,0.4,8.4,8.4c0,7.4-5.9,8.4-8.4,8.4h-8.4
	v-16.8L215.6,165.2L215.6,165.2z"/>
</svg>
