<?xml version="1.0" encoding="UTF-8"?><svg id="Layer_1" xmlns="http://www.w3.org/2000/svg" viewBox="0 0 1330.81 589.32"><defs><style>.cls-1{stroke-width:17px;}.cls-1,.cls-2{fill:none;stroke:#2d2d2d;stroke-linecap:round;stroke-miterlimit:10;}.cls-3{fill:#2d2d2d;}.cls-2{stroke-width:15px;}</style></defs><g><path class="cls-3" d="m1002.44,188.06h-54.56c-2.58-46.58-26.1-80.74-37.68-94.89,4.76-4.49,10.27-11.58,13-21.84,5.07-19.07-1.08-41.82-18.28-67.6-1.55-2.33-4.16-3.73-6.96-3.73-.47,0-44.07.71-49.58,58.55-18.21-7.22-56.33-19.64-103.16-19.64-72.72,0-135.12,29.13-185.54,86.61-19.62,1.27-104.64,13.25-108.7,125.23h-33.63c-26.14,0-31.85-19.8-33.09-29.08-.29-2.15-.33-3.74-.34-4.38-.02-4.6-3.75-8.33-8.36-8.33s-8.36,3.74-8.36,8.36c0,17.35,10.48,50.15,50.15,50.15h33.62c3.79,104.85,78.56,122.03,104.29,124.83v75.77c0,4.62,3.74,8.36,8.36,8.36h41.79c4.62,0,8.36-3.74,8.36-8.36v-75.22h171.35v75.22c0,4.62,3.74,8.36,8.36,8.36h41.79c4.62,0,8.36-3.74,8.36-8.36v-75.48c87.55-5.47,101.74-96.72,104.04-125.12h54.76c4.62,0,8.36-3.74,8.36-8.36v-62.69c0-4.62-3.74-8.36-8.36-8.36h0Zm-8.36,62.68h-54.33c-4.61,0-8.35,3.74-8.36,8.35,0,4.78-1.32,117.03-96.12,117.03-4.62,0-8.36,3.74-8.36,8.36v75.22h-25.08v-75.22c0-4.62-3.74-8.36-8.36-8.36h-188.06c-4.62,0-8.36,3.74-8.36,8.36v75.22h-25.08v-75.22c0-4.62-3.82-8.36-8.44-8.36-3.92,0-96.03-1.33-96.03-117.01s92.12-117.01,96.04-117.01c2.19.25,4.82-1.04,6.43-2.92,47.52-55.44,106.48-83.54,175.24-83.54,60.51,0,106.76,22.67,107.22,22.9,2.59,1.29,5.67,1.14,8.13-.37,2.45-1.53,3.96-4.22,3.96-7.11,0-42.12,20.29-51.59,29.27-53.71,12.03,19.35,16.63,36.35,13.32,49.38-3.18,12.51-12.58,17.58-12.9,17.76-2.4,1.2-4.07,3.48-4.51,6.13-.43,2.65.43,5.35,2.32,7.25.4.4,39.35,40.29,39.35,98.58,0,4.62,3.74,8.36,8.36,8.36h54.33v45.97Z"/><path class="cls-3" d="m835.27,104.48c-27.65,0-50.15,22.49-50.15,50.15s22.49,50.15,50.15,50.15,50.15-22.49,50.15-50.15-22.5-50.15-50.15-50.15Zm0,83.58c-18.44,0-33.43-15-33.43-33.43s15-33.43,33.43-33.43,33.43,15,33.43,33.43-15,33.43-33.43,33.43Z"/><path class="cls-3" d="m835.53,146.27h-.08c-4.62,0-8.32,3.74-8.32,8.36s3.78,8.36,8.4,8.36,8.36-3.74,8.36-8.36c0-4.62-3.74-8.36-8.36-8.36h0Z"/><path class="cls-3" d="m668.11,125.38c-62.22,0-112.84,50.62-112.84,112.84s50.62,112.84,112.84,112.84,112.84-50.62,112.84-112.84-50.62-112.84-112.84-112.84Zm0,208.96c-53,0-96.12-43.12-96.12-96.12s43.12-96.12,96.12-96.12,96.12,43.12,96.12,96.12-43.12,96.12-96.12,96.12Z"/><path class="cls-3" d="m709.9,204.78c4.62,0,8.36-3.74,8.36-8.36s-3.74-8.36-8.36-8.36h-33.43v-12.54c0-4.62-3.74-8.36-8.36-8.36s-8.36,3.74-8.36,8.36v12.54h-12.54c-11.76,0-29.26,7.79-29.26,29.26s17.5,29.26,29.26,29.26h12.54v25.08h-33.43c-4.62,0-8.36,3.74-8.36,8.36s3.74,8.36,8.36,8.36h33.43v12.54c0,4.62,3.74,8.36,8.36,8.36s8.36-3.74,8.36-8.36v-12.54h12.54c11.76,0,29.26-7.79,29.26-29.26s-17.5-29.26-29.26-29.26h-12.54v-25.08h33.43Zm-50.15,25.08h-12.54c-2.09,0-12.54-.61-12.54-12.54,0-11.1,8.82-12.47,12.54-12.54h12.54v25.07Zm29.26,16.72c2.09,0,12.54.61,12.54,12.54,0,11.1-8.82,12.47-12.54,12.54h-12.54v-25.08h12.54Z"/></g><path class="cls-2" d="m104.83,581.82c147.27-83.26,1022.12-103.26,1218.48-9.51"/><path class="cls-1" d="m843.89,285.31s8.33,42.23,81.77,31.5"/></svg>