<?xml version="1.0" encoding="UTF-8"?><svg id="Layer_1" xmlns="http://www.w3.org/2000/svg" viewBox="0 0 431.2 319.21"><path d="m425.6,126h-36.55c-1.73-31.21-17.49-54.1-25.25-63.58,3.19-3.01,6.88-7.76,8.71-14.63,3.39-12.78-.72-28.02-12.25-45.29C359.22.94,357.48,0,355.6,0c-.31,0-29.53.48-33.22,39.23-12.2-4.84-37.74-13.16-69.11-13.16-48.72,0-90.53,19.52-124.31,58.03-13.15.85-70.11,8.88-72.83,83.9h-22.53c-17.52,0-21.34-13.27-22.17-19.48-.19-1.44-.22-2.51-.23-2.94-.02-3.08-2.52-5.58-5.6-5.58s-5.6,2.51-5.6,5.6c0,11.62,7.02,33.6,33.6,33.6h22.52c2.54,70.25,52.64,81.76,69.88,83.64v50.76c0,3.09,2.51,5.6,5.6,5.6h28c3.09,0,5.6-2.51,5.6-5.6v-50.4h114.8v50.4c0,3.09,2.51,5.6,5.6,5.6h28c3.09,0,5.6-2.51,5.6-5.6v-50.57c58.66-3.66,68.16-64.8,69.7-83.83h36.69c3.09,0,5.6-2.51,5.6-5.6v-42c0-3.09-2.51-5.6-5.6-5.6h0Zm-5.6,42h-36.4c-3.09,0-5.59,2.51-5.6,5.59,0,3.2-.88,78.41-64.4,78.41-3.09,0-5.6,2.51-5.6,5.6v50.4h-16.8v-50.4c0-3.09-2.51-5.6-5.6-5.6h-126c-3.09,0-5.6,2.51-5.6,5.6v50.4h-16.8v-50.4c0-3.09-2.56-5.6-5.66-5.6-2.62,0-64.34-.89-64.34-78.4s61.72-78.4,64.34-78.4c1.47.17,3.23-.7,4.31-1.96,31.84-37.14,71.34-55.97,117.41-55.97,40.54,0,71.53,15.19,71.84,15.34,1.73.86,3.8.76,5.45-.25,1.64-1.02,2.65-2.82,2.65-4.76,0-28.22,13.59-34.56,19.61-35.99,8.06,12.96,11.14,24.35,8.93,33.08-2.13,8.38-8.43,11.78-8.64,11.9-1.61.8-2.73,2.33-3.02,4.11-.29,1.77.29,3.58,1.55,4.86.27.27,26.37,27,26.37,66.05,0,3.09,2.51,5.6,5.6,5.6h36.4v30.8Z"/><path d="m313.6,70c-18.53,0-33.6,15.07-33.6,33.6s15.07,33.6,33.6,33.6,33.6-15.07,33.6-33.6-15.07-33.6-33.6-33.6Zm0,56c-12.35,0-22.4-10.05-22.4-22.4s10.05-22.4,22.4-22.4,22.4,10.05,22.4,22.4-10.05,22.4-22.4,22.4Z"/><path d="m313.77,98h-.05c-3.09,0-5.57,2.51-5.57,5.6s2.54,5.6,5.63,5.6,5.6-2.51,5.6-5.6c0-3.09-2.51-5.6-5.6-5.6h0Z"/><path d="m201.6,84c-41.69,0-75.6,33.91-75.6,75.6s33.91,75.6,75.6,75.6,75.6-33.91,75.6-75.6-33.91-75.6-75.6-75.6Zm0,140c-35.51,0-64.4-28.89-64.4-64.4s28.89-64.4,64.4-64.4,64.4,28.89,64.4,64.4-28.89,64.4-64.4,64.4Z"/><path d="m229.6,137.2c3.09,0,5.6-2.51,5.6-5.6s-2.51-5.6-5.6-5.6h-22.4v-8.4c0-3.09-2.51-5.6-5.6-5.6s-5.6,2.51-5.6,5.6v8.4h-8.4c-7.88,0-19.6,5.22-19.6,19.6s11.72,19.6,19.6,19.6h8.4v16.8h-22.4c-3.09,0-5.6,2.51-5.6,5.6s2.51,5.6,5.6,5.6h22.4v8.4c0,3.09,2.51,5.6,5.6,5.6s5.6-2.51,5.6-5.6v-8.4h8.4c7.88,0,19.6-5.22,19.6-19.6s-11.72-19.6-19.6-19.6h-8.4v-16.8h22.4Zm-33.6,16.8h-8.4c-1.4,0-8.4-.41-8.4-8.4,0-7.43,5.91-8.35,8.4-8.4h8.4v16.8Zm19.6,11.2c1.4,0,8.4.41,8.4,8.4,0,7.43-5.91,8.35-8.4,8.4h-8.4v-16.8h8.4Z"/><path d="m95.21,5.6c0-3.09-2.51-5.6-5.6-5.6s-5.6,2.51-5.6,5.6v56.48l-18.44-18.44c-1.09-1.09-2.52-1.64-3.96-1.64s-2.87.55-3.96,1.64c-2.19,2.19-2.19,5.73,0,7.92l28,28c.54.54,1.16.93,1.82,1.21.66.28,1.38.44,2.14.44s1.48-.16,2.14-.43c.66-.27,1.28-.67,1.82-1.21l28-28c2.19-2.19,2.19-5.73,0-7.92s-5.73-2.19-7.92,0l-3.96,3.96-14.48,14.48V5.6Z"/></svg>